<?xml version="1.0" encoding="UTF-8"?>
<svg id="Design" xmlns="http://www.w3.org/2000/svg" viewBox="0 0 1000 1000">
  <defs>
    <style>
      .cls-1 {
        fill: #10c5f1;
      }

      .cls-2 {
        fill: #fff;
      }

      .cls-3 {
        fill: #040287;
      }
    </style>
  </defs>
  <path class="cls-2" d="M500.9,623.89c-.02-.12-.04-.25-.06-.37h.02c.01.12.02.25.04.37Z"/>
  <g>
    <path class="cls-3" d="M139.03,655.42v14.57h-30v87.39h-17.88v-87.39h-29.85v-14.57h77.73Z"/>
    <path class="cls-3" d="M193.98,732.57h-38.51c-3.37,9.62-6.3,17.88-8.8,24.8h-17.45c10.38-29.42,22.3-63.4,35.77-101.96h21.06l35.91,101.96h-19.18c-2.5-6.92-5.43-15.19-8.8-24.8ZM189.36,718.73c-4.9-14.8-9.52-30.14-13.84-46h-1.01c-3.66,12.88-8.41,28.22-14.28,46h29.13Z"/>
    <path class="cls-3" d="M213.44,655.42h18.32l17.74,83.5h1.15c3.84-15.38,8.36-33.94,13.56-55.67l6.78-27.83h21.06c6.06,27.88,11.97,55.72,17.74,83.5h1.3l19.47-83.5h16.44l-13.7,50.91c-2.98,11.35-7.55,28.36-13.7,51.05h-19.04l-19.18-80.62h-1.44l-15.72,60.71c-1.06,4.42-2.74,11.06-5.05,19.9h-19.04l-26.68-101.96Z"/>
    <path class="cls-3" d="M352.47,727.96h17.59c.58,6.25,2.62,10.7,6.13,13.34,3.51,2.65,8.29,3.97,14.35,3.97s10.43-1.39,13.99-4.18c3.56-2.79,5.34-6.54,5.34-11.25,0-3.75-.89-6.73-2.67-8.94-1.78-2.21-4.3-4.01-7.57-5.41-3.27-1.39-8.17-3-14.71-4.83-9.9-2.88-17.62-6.63-23.15-11.25-5.53-4.61-8.29-10.67-8.29-18.17,0-8.65,3.05-15.45,9.16-20.41,6.1-4.95,14.4-7.43,24.88-7.43,11.73,0,20.72,2.31,26.97,6.92,6.25,4.61,9.85,11.68,10.82,21.2h-16.87c-.77-4.71-2.79-8.2-6.06-10.46-3.27-2.26-7.98-3.39-14.13-3.39-5.29,0-9.45,1.11-12.47,3.32-3.03,2.21-4.54,5.39-4.54,9.52,0,2.98.74,5.48,2.24,7.5,1.49,2.02,3.82,3.82,6.99,5.41,3.17,1.59,7.64,3.24,13.41,4.98,8.27,2.4,14.71,4.74,19.32,6.99,4.62,2.26,8.2,5.22,10.74,8.87,2.55,3.65,3.82,8.51,3.82,14.57s-1.56,11.42-4.69,16.08c-3.13,4.66-7.55,8.27-13.27,10.82-5.72,2.55-12.28,3.82-19.69,3.82-23.17,0-35.72-10.53-37.64-31.58Z"/>
    <path class="cls-3" d="M446.93,655.42h17.88v101.96h-17.88v-101.96Z"/>
    <path class="cls-3" d="M509.23,742.81h44.56v14.57h-62.44v-101.96h17.88v87.39Z"/>
    <path class="cls-3" d="M602.54,727.96h17.59c.58,6.25,2.62,10.7,6.13,13.34,3.51,2.65,8.29,3.97,14.35,3.97s10.43-1.39,13.99-4.18c3.56-2.79,5.34-6.54,5.34-11.25,0-3.75-.89-6.73-2.67-8.94-1.78-2.21-4.3-4.01-7.57-5.41-3.27-1.39-8.17-3-14.71-4.83-9.9-2.88-17.62-6.63-23.15-11.25-5.53-4.61-8.29-10.67-8.29-18.17,0-8.65,3.05-15.45,9.16-20.41,6.1-4.95,14.4-7.43,24.88-7.43,11.73,0,20.72,2.31,26.97,6.92,6.25,4.61,9.85,11.68,10.82,21.2h-16.87c-.77-4.71-2.79-8.2-6.06-10.46-3.27-2.26-7.98-3.39-14.13-3.39-5.29,0-9.45,1.11-12.47,3.32-3.03,2.21-4.54,5.39-4.54,9.52,0,2.98.74,5.48,2.24,7.5,1.49,2.02,3.82,3.82,6.99,5.41,3.17,1.59,7.64,3.24,13.41,4.98,8.27,2.4,14.71,4.74,19.32,6.99,4.62,2.26,8.2,5.22,10.74,8.87,2.55,3.65,3.82,8.51,3.82,14.57s-1.56,11.42-4.69,16.08c-3.13,4.66-7.55,8.27-13.27,10.82-5.72,2.55-12.28,3.82-19.69,3.82-23.17,0-35.72-10.53-37.64-31.58Z"/>
    <path class="cls-3" d="M764.2,655.42v14.57h-30v87.39h-17.88v-87.39h-29.85v-14.57h77.73Z"/>
    <path class="cls-3" d="M819.15,732.57h-38.51c-3.37,9.62-6.3,17.88-8.8,24.8h-17.45c10.38-29.42,22.3-63.4,35.77-101.96h21.06l35.91,101.96h-19.18c-2.5-6.92-5.43-15.19-8.8-24.8ZM814.53,718.73c-4.9-14.8-9.52-30.14-13.84-46h-1.01c-3.66,12.88-8.41,28.22-14.28,46h29.13Z"/>
    <path class="cls-3" d="M936.18,751.39c.53,2.26,1.37,4.25,2.52,5.98h-19.04c-1.15-2.02-1.95-4.42-2.38-7.21-.43-2.79-.75-7.02-.94-12.69-.29-5.38-1.28-9.49-2.96-12.33-1.68-2.83-4.16-4.78-7.43-5.84-3.27-1.06-7.74-1.59-13.41-1.59h-12.98v39.66h-17.88v-101.96h36.05c11.83,0,20.77,2.28,26.82,6.85,6.06,4.57,9.09,11.37,9.09,20.41,0,15.38-6.87,24.42-20.62,27.11v.87c5.38.87,9.47,2.28,12.26,4.25,2.79,1.97,4.83,4.86,6.13,8.65,1.3,3.8,2.38,9.25,3.24,16.37.48,5.39.98,9.21,1.51,11.47ZM910.58,698.9c3.56-3.22,5.34-7.72,5.34-13.48,0-10.29-6.78-15.43-20.33-15.43h-16.01v33.75h14.85c7.21,0,12.59-1.61,16.15-4.83Z"/>
  </g>
  <path class="cls-3" d="M647.65,425.41l2.18-71.7s-6.56,1.19-16.69,3.06c-16.76,3.11-43.26,8.11-65.91,12.74-10.14,2.07-19.51,4.07-26.88,5.8-29.89,6.99-59.33,15.91-88.93,24.07-.11.03-.22.06-.33.09-22.39,6.18-44.76,12.37-67.14,18.56-28.06,7.77-56.12,15.54-84.18,23.31-37.42,10.35-115.38,30.58-116.34,30.84,1.02-.58,102.22-58.72,186.35-103.11,23.73-12.53,46.1-23.96,64.48-32.69.52-.25,1.04-.5,1.56-.74,25.4-12.01,63.38-28.07,99.05-42.73,24.94-10.25,48.75-19.81,66.35-26.81,17.66-7.03,29.06-11.49,29.06-11.49l-2.75-8.64s-27.26-76.07-28.32-79.91c69.99,32.6,138.27,64.39,207.82,96.79l-159.36,162.58Z"/>
  <g>
    <path class="cls-1" d="M176.43,790.43c4.19,4.24,6.29,10.25,6.29,18.03s-2.06,13.86-6.18,18.1c-4.12,4.24-10.03,6.36-17.72,6.36h-16.44v-48.84h16.37c7.6,0,13.49,2.12,17.68,6.36ZM170.18,821.52c2.65-2.95,3.97-7.28,3.97-12.99s-1.35-10.11-4.04-13.06c-2.69-2.95-6.57-4.42-11.64-4.42h-7.53v34.89h7.81c4.97,0,8.78-1.47,11.43-4.42Z"/>
    <path class="cls-1" d="M200.54,825.94h23.21v6.98h-31.78v-48.84h31.29v6.98h-22.73v13.33h21.14v6.77h-21.14v14.78Z"/>
    <path class="cls-1" d="M242.06,825.94h21.35v6.98h-29.91v-48.84h8.57v41.86Z"/>
    <path class="cls-1" d="M270.73,784.08h8.57v48.84h-8.57v-48.84Z"/>
    <path class="cls-1" d="M296.22,814.13c-3.22-9.99-6.54-20.01-9.95-30.05h9.19l3.73,12.23c1.47,4.7,2.96,9.54,4.46,14.54,1.5,5,2.77,9.54,3.83,13.64h.48c1.66-6.22,4.47-15.63,8.43-28.25.46-1.47,1.73-5.53,3.8-12.16h8.43c-4.84,14.55-10.2,30.83-16.1,48.84h-10.09l-6.22-18.79Z"/>
    <path class="cls-1" d="M344.09,825.94h23.21v6.98h-31.78v-48.84h31.29v6.98h-22.73v13.33h21.14v6.77h-21.14v14.78Z"/>
    <path class="cls-1" d="M412.72,830.05c.25,1.08.66,2.04,1.21,2.87h-9.12c-.55-.97-.93-2.12-1.14-3.45-.21-1.34-.36-3.36-.45-6.08-.14-2.58-.61-4.55-1.42-5.91-.81-1.36-1.99-2.29-3.56-2.8-1.57-.51-3.71-.76-6.42-.76h-6.22v19h-8.57v-48.84h17.27c5.66,0,9.95,1.09,12.85,3.28,2.9,2.19,4.35,5.45,4.35,9.77,0,7.37-3.29,11.7-9.88,12.99v.41c2.58.41,4.54,1.09,5.87,2.04,1.34.94,2.31,2.33,2.94,4.14.62,1.82,1.14,4.43,1.55,7.84.23,2.58.47,4.41.73,5.49ZM400.46,804.91c1.7-1.54,2.56-3.7,2.56-6.46,0-4.93-3.25-7.39-9.74-7.39h-7.67v16.16h7.12c3.45,0,6.03-.77,7.74-2.31Z"/>
    <path class="cls-1" d="M415.18,784.08h9.74l6.42,12.64c1.01,1.89,1.92,3.63,2.73,5.22.81,1.59,1.53,3.01,2.18,4.25h.76l11.33-22.11h8.84l-16.58,29.91v18.93h-8.43v-18.93l-16.99-29.91Z"/>
    <path class="cls-1" d="M520.04,827.53v5.73c-1.24.23-2.49.35-3.73.35-1.75,0-3.28-.28-4.59-.83-1.31-.55-2.59-1.4-3.83-2.56-1.8,1.24-3.73,2.17-5.8,2.76-2.07.6-4.1.9-6.08.9-3.13,0-5.9-.53-8.29-1.59-2.39-1.06-4.25-2.53-5.56-4.42-1.31-1.89-1.97-4.05-1.97-6.49s.68-4.8,2.04-7.08c1.36-2.28,3.51-4.34,6.46-6.18l-.21-.55c-2.39-2.63-4.04-4.8-4.94-6.53-.9-1.73-1.35-3.46-1.35-5.22,0-2.44.63-4.59,1.9-6.46,1.27-1.87,2.97-3.32,5.11-4.35,2.14-1.04,4.5-1.55,7.08-1.55,4.7,0,8.37,1.37,11.02,4.11,2.65,2.74,4.18,6.39,4.59,10.95h-7.67c-.32-2.63-1.15-4.75-2.49-6.39-1.34-1.63-3.06-2.45-5.18-2.45s-3.71.58-4.9,1.73c-1.2,1.15-1.8,2.67-1.8,4.56,0,1.2.44,2.57,1.31,4.11.87,1.54,2.3,3.4,4.28,5.56l12.09,14.51c1.61-3.04,2.44-6.65,2.49-10.85h7.32c0,6.68-1.61,12.16-4.84,16.44,1.56,1.34,3.13,2,4.7,2,.87,0,1.82-.07,2.83-.21ZM490.06,825.67c1.56,1.34,3.57,2,6.01,2,2.63,0,5.04-.83,7.25-2.49l-10.64-12.71c-1.8,1.43-3.07,2.76-3.83,4.01s-1.14,2.58-1.14,4.01c0,2.12.78,3.85,2.35,5.18Z"/>
    <path class="cls-1" d="M543.8,818.83h8.43c.28,2.99,1.25,5.12,2.94,6.39,1.68,1.27,3.97,1.9,6.87,1.9s5-.67,6.7-2c1.7-1.34,2.56-3.13,2.56-5.39,0-1.8-.43-3.22-1.28-4.28-.85-1.06-2.06-1.92-3.63-2.59-1.57-.67-3.91-1.44-7.05-2.31-4.74-1.38-8.44-3.18-11.09-5.39-2.65-2.21-3.97-5.11-3.97-8.7,0-4.14,1.46-7.4,4.39-9.78,2.92-2.37,6.9-3.56,11.92-3.56,5.62,0,9.92,1.11,12.92,3.32,2.99,2.21,4.72,5.6,5.18,10.15h-8.08c-.37-2.26-1.34-3.93-2.9-5.01-1.57-1.08-3.82-1.62-6.77-1.62-2.53,0-4.52.53-5.98,1.59-1.45,1.06-2.18,2.58-2.18,4.56,0,1.43.36,2.63,1.07,3.59.71.97,1.83,1.83,3.35,2.59s3.66,1.55,6.42,2.38c3.96,1.15,7.05,2.27,9.26,3.35,2.21,1.08,3.93,2.5,5.15,4.25,1.22,1.75,1.83,4.08,1.83,6.98s-.75,5.47-2.25,7.7c-1.5,2.23-3.62,3.96-6.36,5.18-2.74,1.22-5.88,1.83-9.43,1.83-11.1,0-17.11-5.04-18.03-15.13Z"/>
    <path class="cls-1" d="M597.62,825.94h23.21v6.98h-31.78v-48.84h31.29v6.98h-22.73v13.33h21.14v6.77h-21.14v14.78Z"/>
    <path class="cls-1" d="M666.25,830.05c.25,1.08.66,2.04,1.21,2.87h-9.12c-.55-.97-.93-2.12-1.14-3.45-.21-1.34-.36-3.36-.45-6.08-.14-2.58-.61-4.55-1.42-5.91-.81-1.36-1.99-2.29-3.56-2.8-1.57-.51-3.71-.76-6.42-.76h-6.22v19h-8.57v-48.84h17.27c5.66,0,9.95,1.09,12.85,3.28,2.9,2.19,4.35,5.45,4.35,9.77,0,7.37-3.29,11.7-9.88,12.99v.41c2.58.41,4.54,1.09,5.87,2.04,1.34.94,2.31,2.33,2.94,4.14.62,1.82,1.14,4.43,1.55,7.84.23,2.58.47,4.41.73,5.49ZM653.99,804.91c1.7-1.54,2.56-3.7,2.56-6.46,0-4.93-3.25-7.39-9.74-7.39h-7.67v16.16h7.12c3.45,0,6.03-.77,7.74-2.31Z"/>
    <path class="cls-1" d="M679.2,814.13c-3.22-9.99-6.54-20.01-9.95-30.05h9.19l3.73,12.23c1.47,4.7,2.96,9.54,4.46,14.54,1.5,5,2.77,9.54,3.83,13.64h.48c1.66-6.22,4.47-15.63,8.43-28.25.46-1.47,1.73-5.53,3.8-12.16h8.43c-4.84,14.55-10.2,30.83-16.1,48.84h-10.09l-6.22-18.79Z"/>
    <path class="cls-1" d="M718.51,784.08h8.57v48.84h-8.57v-48.84Z"/>
    <path class="cls-1" d="M746.59,830.85c-3.29-2.07-5.83-5.03-7.6-8.88-1.77-3.84-2.66-8.32-2.66-13.44s.89-9.58,2.66-13.4c1.77-3.82,4.33-6.78,7.67-8.88,3.34-2.1,7.24-3.14,11.71-3.14,5.48,0,10.05,1.53,13.71,4.59,3.66,3.06,5.93,7.38,6.8,12.95h-8.5c-.74-3.36-2.17-5.96-4.28-7.81-2.12-1.84-4.77-2.76-7.94-2.76-4.14,0-7.4,1.64-9.77,4.9-2.37,3.27-3.56,7.78-3.56,13.54s1.19,10.33,3.56,13.57c2.37,3.25,5.63,4.87,9.77,4.87,3.04,0,5.6-.85,7.67-2.56,2.07-1.7,3.55-4.12,4.42-7.25h8.63c-1.01,5.39-3.32,9.53-6.91,12.43-3.59,2.9-8.2,4.35-13.82,4.35-4.42,0-8.28-1.04-11.57-3.11Z"/>
    <path class="cls-1" d="M796.71,825.94h23.21v6.98h-31.78v-48.84h31.29v6.98h-22.73v13.33h21.14v6.77h-21.14v14.78Z"/>
    <path class="cls-1" d="M826.21,818.83h8.43c.28,2.99,1.25,5.12,2.94,6.39,1.68,1.27,3.97,1.9,6.87,1.9s5-.67,6.7-2c1.7-1.34,2.56-3.13,2.56-5.39,0-1.8-.43-3.22-1.28-4.28-.85-1.06-2.06-1.92-3.63-2.59-1.57-.67-3.91-1.44-7.05-2.31-4.74-1.38-8.44-3.18-11.09-5.39-2.65-2.21-3.97-5.11-3.97-8.7,0-4.14,1.46-7.4,4.39-9.78,2.92-2.37,6.9-3.56,11.92-3.56,5.62,0,9.92,1.11,12.92,3.32,2.99,2.21,4.72,5.6,5.18,10.15h-8.08c-.37-2.26-1.34-3.93-2.9-5.01-1.57-1.08-3.82-1.62-6.77-1.62-2.53,0-4.52.53-5.98,1.59-1.45,1.06-2.18,2.58-2.18,4.56,0,1.43.36,2.63,1.07,3.59.71.97,1.83,1.83,3.35,2.59s3.66,1.55,6.42,2.38c3.96,1.15,7.05,2.27,9.26,3.35,2.21,1.08,3.93,2.5,5.15,4.25,1.22,1.75,1.83,4.08,1.83,6.98s-.75,5.47-2.25,7.7c-1.5,2.23-3.62,3.96-6.36,5.18-2.74,1.22-5.88,1.83-9.43,1.83-11.1,0-17.11-5.04-18.03-15.13Z"/>
  </g>
  <path class="cls-1" d="M562.44,382.48c-11.14,22.76-34.53,38.43-61.57,38.43-14.53,0-28-4.52-39.08-12.23-2.42.67-4.84,1.35-7.25,2.01-21.93,6.05-44.1,12.18-66.03,18.25,24.35,55.25,66.19,109.34,109.79,157.64.86.95,1.71,1.89,2.57,2.84.86-.94,1.71-1.89,2.57-2.84,50.72-56.18,99.05-120.19,120.24-184.77,3.6-10.96,6.41-21.94,8.32-32.89-18.71,3.49-47.11,8.87-69.56,13.56ZM500.87,220.06c-73.09,0-132.35,59.25-132.35,132.35,0,1.35.02,2.69.06,4.03,23-12.1,44.56-23.06,62.2-31.41,2.95-1.4,6.07-2.84,9.34-4.35,11.44-21.86,34.35-36.79,60.74-36.79,6.51,0,12.8.91,18.77,2.6,26.79-11.08,53.11-21.68,72.88-29.56-23.78-22.84-56.08-36.87-91.65-36.87Z"/>
  <ellipse class="cls-1" cx="500.87" cy="581.49" rx="156.19" ry="23.38"/>
</svg>