<?xml version="1.0" encoding="UTF-8"?>
<svg id="Design" xmlns="http://www.w3.org/2000/svg" viewBox="0 0 2430.49 1000">
  <defs>
    <style>
      .cls-1 {
        fill: #10c5f1;
      }

      .cls-2 {
        fill: #fff;
      }

      .cls-3 {
        fill: #040287;
      }
    </style>
  </defs>
  <path class="cls-2" d="M514.31,809.75c-.02-.15-.05-.3-.07-.45h.03c.01.15.03.3.04.45Z"/>
  <g>
    <path class="cls-3" d="M785.78,546.14l2.55-83.86s-7.68,1.39-19.52,3.58c-19.6,3.64-50.6,9.48-77.09,14.9-11.86,2.43-22.82,4.76-31.44,6.78-34.96,8.18-69.39,18.61-104.02,28.16-.13.04-.26.07-.39.11-26.18,7.23-52.36,14.46-78.54,21.71-32.82,9.08-65.65,18.18-98.47,27.26-43.77,12.1-134.95,35.77-136.08,36.07,1.19-.68,119.57-68.68,217.97-120.61,27.76-14.65,53.92-28.02,75.42-38.24.61-.29,1.22-.58,1.82-.86,29.71-14.05,74.13-32.84,115.86-49.98,29.17-11.98,57.02-23.17,77.6-31.36,20.66-8.22,33.99-13.44,33.99-13.44l-3.21-10.11s-31.88-88.97-33.13-93.47c81.86,38.13,161.73,75.32,243.08,113.21l-186.4,190.16Z"/>
    <path class="cls-1" d="M686.12,495.94c-13.03,26.62-40.39,44.95-72.02,44.95-16.99,0-32.75-5.29-45.71-14.31-2.83.79-5.66,1.57-8.48,2.35-25.65,7.07-51.58,14.24-77.24,21.34,28.48,64.63,77.42,127.9,128.42,184.39,1,1.11,2,2.21,3.01,3.32,1.01-1.1,2-2.21,3.01-3.32,59.33-65.71,115.86-140.59,140.65-216.12,4.21-12.82,7.5-25.66,9.73-38.47-21.88,4.08-55.1,10.37-81.36,15.86ZM614.09,305.95c-85.5,0-154.8,69.31-154.8,154.8,0,1.58.02,3.15.07,4.71,26.91-14.15,52.12-26.98,72.76-36.74,3.45-1.63,7.1-3.33,10.93-5.08,13.38-25.57,40.18-43.03,71.05-43.03,7.61,0,14.98,1.06,21.96,3.04,31.33-12.96,62.13-25.36,85.24-34.58-27.82-26.71-65.59-43.13-107.2-43.13Z"/>
    <ellipse class="cls-1" cx="614.09" cy="728.71" rx="182.69" ry="27.35"/>
  </g>
  <g>
    <path class="cls-3" d="M1057.74,434.8v20.58h-42.39v123.49h-25.27v-123.49h-42.18v-20.58h109.84Z"/>
    <path class="cls-3" d="M1135.38,543.82h-54.41c-4.76,13.59-8.9,25.27-12.43,35.05h-24.66c14.67-41.57,31.52-89.59,50.54-144.08h29.75l50.74,144.08h-27.1c-3.53-9.78-7.68-21.46-12.43-35.05ZM1128.86,524.26c-6.93-20.92-13.45-42.59-19.56-65.01h-1.43c-5.16,18.21-11.89,39.87-20.17,65.01h41.16Z"/>
    <path class="cls-3" d="M1162.89,434.8h25.88l25.07,117.99h1.63c5.43-21.73,11.82-47.96,19.16-78.66l9.58-39.33h29.75c8.56,39.4,16.91,78.73,25.07,117.99h1.83l27.51-117.99h23.23l-19.36,71.94c-4.21,16.03-10.67,40.08-19.36,72.14h-26.9l-27.1-113.92h-2.04l-22.21,85.79c-1.5,6.25-3.87,15.62-7.13,28.12h-26.9l-37.7-144.08Z"/>
    <path class="cls-3" d="M1359.34,537.3h24.86c.82,8.83,3.7,15.11,8.66,18.85,4.96,3.74,11.72,5.6,20.28,5.6s14.74-1.97,19.77-5.91c5.02-3.94,7.54-9.24,7.54-15.9,0-5.3-1.26-9.51-3.77-12.63-2.52-3.12-6.08-5.67-10.7-7.64-4.62-1.97-11.55-4.24-20.79-6.83-13.99-4.08-24.9-9.37-32.71-15.9-7.81-6.52-11.72-15.08-11.72-25.68,0-12.23,4.31-21.84,12.94-28.84,8.63-7,20.34-10.49,35.15-10.49,16.57,0,29.27,3.26,38.11,9.78,8.83,6.52,13.92,16.51,15.28,29.96h-23.84c-1.09-6.65-3.94-11.58-8.56-14.77-4.62-3.19-11.28-4.79-19.97-4.79-7.47,0-13.35,1.56-17.63,4.69-4.28,3.13-6.42,7.61-6.42,13.45,0,4.21,1.05,7.74,3.16,10.6,2.1,2.85,5.4,5.4,9.88,7.64,4.48,2.24,10.8,4.59,18.95,7.03,11.68,3.4,20.79,6.69,27.31,9.88,6.52,3.19,11.58,7.37,15.18,12.53,3.6,5.16,5.4,12.02,5.4,20.58s-2.21,16.13-6.62,22.72c-4.42,6.59-10.67,11.69-18.75,15.28-8.08,3.6-17.36,5.4-27.82,5.4-32.74,0-50.47-14.88-53.19-44.63Z"/>
    <path class="cls-3" d="M1492.82,434.8h25.27v144.08h-25.27v-144.08Z"/>
    <path class="cls-3" d="M1580.85,558.29h62.97v20.58h-88.24v-144.08h25.27v123.49Z"/>
    <path class="cls-3" d="M1712.7,537.3h24.86c.82,8.83,3.7,15.11,8.66,18.85,4.96,3.74,11.72,5.6,20.28,5.6s14.74-1.97,19.77-5.91c5.02-3.94,7.54-9.24,7.54-15.9,0-5.3-1.26-9.51-3.77-12.63-2.52-3.12-6.08-5.67-10.7-7.64-4.62-1.97-11.55-4.24-20.79-6.83-13.99-4.08-24.9-9.37-32.71-15.9-7.81-6.52-11.72-15.08-11.72-25.68,0-12.23,4.31-21.84,12.94-28.84,8.63-7,20.34-10.49,35.15-10.49,16.57,0,29.27,3.26,38.11,9.78,8.83,6.52,13.92,16.51,15.28,29.96h-23.84c-1.09-6.65-3.94-11.58-8.56-14.77-4.62-3.19-11.28-4.79-19.97-4.79-7.47,0-13.35,1.56-17.63,4.69-4.28,3.13-6.42,7.61-6.42,13.45,0,4.21,1.05,7.74,3.16,10.6,2.1,2.85,5.4,5.4,9.88,7.64,4.48,2.24,10.8,4.59,18.95,7.03,11.68,3.4,20.79,6.69,27.31,9.88,6.52,3.19,11.58,7.37,15.18,12.53,3.6,5.16,5.4,12.02,5.4,20.58s-2.21,16.13-6.62,22.72c-4.42,6.59-10.67,11.69-18.75,15.28-8.08,3.6-17.36,5.4-27.82,5.4-32.74,0-50.47-14.88-53.19-44.63Z"/>
    <path class="cls-3" d="M1941.14,434.8v20.58h-42.39v123.49h-25.27v-123.49h-42.18v-20.58h109.84Z"/>
    <path class="cls-3" d="M2018.79,543.82h-54.41c-4.76,13.59-8.9,25.27-12.43,35.05h-24.66c14.67-41.57,31.52-89.59,50.54-144.08h29.75l50.74,144.08h-27.1c-3.53-9.78-7.68-21.46-12.43-35.05ZM2012.26,524.26c-6.93-20.92-13.45-42.59-19.56-65.01h-1.43c-5.16,18.21-11.89,39.87-20.17,65.01h41.16Z"/>
    <path class="cls-3" d="M2184.16,570.42c.74,3.19,1.94,6.01,3.57,8.46h-26.9c-1.63-2.85-2.75-6.25-3.36-10.19-.61-3.94-1.05-9.92-1.32-17.93-.41-7.61-1.8-13.41-4.18-17.42-2.38-4.01-5.88-6.76-10.49-8.25-4.62-1.49-10.94-2.24-18.95-2.24h-18.34v56.04h-25.27v-144.08h50.95c16.71,0,29.34,3.23,37.9,9.68,8.56,6.45,12.84,16.07,12.84,28.84,0,21.74-9.71,34.51-29.14,38.31v1.22c7.61,1.22,13.38,3.23,17.32,6.01,3.94,2.79,6.83,6.86,8.66,12.23,1.83,5.37,3.36,13.08,4.58,23.13.68,7.61,1.39,13.01,2.14,16.2ZM2147.98,496.24c5.02-4.55,7.54-10.9,7.54-19.05,0-14.54-9.58-21.8-28.73-21.8h-22.62v47.69h20.99c10.19,0,17.8-2.27,22.82-6.83Z"/>
  </g>
  <g>
    <path class="cls-1" d="M1050.52,640.06c6.65,6.73,9.98,16.27,9.98,28.62s-3.27,22-9.81,28.73c-6.54,6.73-15.92,10.09-28.13,10.09h-26.1v-77.53h25.99c12.06,0,21.42,3.36,28.07,10.09ZM1040.59,689.41c4.2-4.68,6.31-11.55,6.31-20.62s-2.14-16.05-6.41-20.72c-4.28-4.68-10.44-7.02-18.48-7.02h-11.95v55.38h12.39c7.9,0,13.94-2.34,18.15-7.02Z"/>
    <path class="cls-1" d="M1088.79,696.42h36.84v11.08h-50.44v-77.53h49.67v11.08h-36.08v21.16h33.55v10.75h-33.55v23.47Z"/>
    <path class="cls-1" d="M1154.69,696.42h33.88v11.08h-47.48v-77.53h13.6v66.45Z"/>
    <path class="cls-1" d="M1200.19,629.97h13.6v77.53h-13.6v-77.53Z"/>
    <path class="cls-1" d="M1240.66,677.67c-5.12-15.86-10.38-31.76-15.79-47.7h14.58l5.92,19.41c2.34,7.46,4.7,15.15,7.07,23.08,2.37,7.93,4.4,15.15,6.09,21.66h.77c2.63-9.87,7.09-24.82,13.38-44.85.73-2.34,2.74-8.77,6.03-19.3h13.38c-7.68,23.1-16.19,48.94-25.55,77.53h-16.01l-9.87-29.83Z"/>
    <path class="cls-1" d="M1316.65,696.42h36.84v11.08h-50.44v-77.53h49.67v11.08h-36.08v21.16h33.55v10.75h-33.55v23.47Z"/>
    <path class="cls-1" d="M1425.59,702.95c.4,1.72,1.04,3.23,1.92,4.55h-14.47c-.88-1.54-1.48-3.36-1.81-5.48-.33-2.12-.57-5.34-.71-9.65-.22-4.09-.97-7.22-2.25-9.38-1.28-2.16-3.16-3.64-5.65-4.44-2.49-.8-5.89-1.21-10.2-1.21h-9.87v30.16h-13.6v-77.53h27.41c8.99,0,15.79,1.74,20.4,5.21,4.61,3.47,6.91,8.65,6.91,15.52,0,11.7-5.23,18.57-15.68,20.62v.66c4.09.66,7.2,1.74,9.32,3.23,2.12,1.5,3.67,3.69,4.66,6.58.99,2.89,1.81,7.04,2.47,12.45.37,4.1.75,7,1.15,8.72ZM1406.13,663.03c2.7-2.45,4.06-5.87,4.06-10.25,0-7.82-5.15-11.73-15.46-11.73h-12.17v25.66h11.29c5.48,0,9.58-1.22,12.28-3.67Z"/>
    <path class="cls-1" d="M1429.48,629.97h15.46l10.2,20.07c1.61,3,3.05,5.76,4.33,8.28,1.28,2.52,2.43,4.77,3.45,6.74h1.21l17.98-35.09h14.04l-26.32,47.48v30.05h-13.38v-30.05l-26.98-47.48Z"/>
    <path class="cls-1" d="M1595.94,698.95v9.1c-1.97.36-3.95.55-5.92.55-2.78,0-5.21-.44-7.29-1.32-2.08-.88-4.11-2.23-6.09-4.06-2.85,1.97-5.92,3.44-9.21,4.39-3.29.95-6.51,1.43-9.65,1.43-4.97,0-9.36-.84-13.16-2.52-3.8-1.68-6.74-4.02-8.83-7.02-2.08-3-3.13-6.43-3.13-10.31s1.08-7.62,3.23-11.24c2.16-3.62,5.57-6.89,10.25-9.81l-.33-.88c-3.8-4.17-6.41-7.62-7.84-10.36-1.43-2.74-2.14-5.5-2.14-8.28,0-3.87,1-7.29,3.02-10.25,2.01-2.96,4.71-5.26,8.11-6.91,3.4-1.64,7.14-2.47,11.24-2.47,7.46,0,13.29,2.18,17.49,6.52,4.2,4.35,6.63,10.14,7.29,17.38h-12.17c-.51-4.17-1.83-7.55-3.95-10.14-2.12-2.59-4.86-3.89-8.22-3.89s-5.89.92-7.79,2.74c-1.9,1.83-2.85,4.24-2.85,7.24,0,1.9.69,4.08,2.08,6.52,1.39,2.45,3.65,5.39,6.8,8.83l19.19,23.03c2.56-4.82,3.87-10.56,3.95-17.22h11.62c0,10.6-2.56,19.3-7.68,26.1,2.48,2.12,4.97,3.18,7.46,3.18,1.39,0,2.89-.11,4.5-.33ZM1548.35,695.99c2.48,2.12,5.66,3.18,9.54,3.18,4.17,0,8-1.32,11.51-3.95l-16.89-20.18c-2.85,2.27-4.88,4.39-6.09,6.36s-1.81,4.1-1.81,6.36c0,3.36,1.24,6.1,3.73,8.22Z"/>
    <path class="cls-1" d="M1633.66,685.13h13.38c.44,4.75,1.99,8.13,4.66,10.14,2.67,2.01,6.3,3.02,10.91,3.02s7.93-1.06,10.64-3.18c2.7-2.12,4.06-4.97,4.06-8.55,0-2.85-.68-5.12-2.03-6.8-1.35-1.68-3.27-3.05-5.76-4.11-2.49-1.06-6.21-2.28-11.18-3.67-7.53-2.19-13.4-5.04-17.6-8.55-4.21-3.51-6.31-8.11-6.31-13.82,0-6.58,2.32-11.75,6.96-15.52,4.64-3.76,10.95-5.65,18.92-5.65,8.92,0,15.75,1.75,20.51,5.26,4.75,3.51,7.49,8.88,8.22,16.12h-12.83c-.59-3.58-2.12-6.23-4.61-7.95-2.49-1.72-6.07-2.58-10.75-2.58-4.02,0-7.18.84-9.49,2.52-2.3,1.68-3.45,4.09-3.45,7.24,0,2.27.57,4.17,1.7,5.7,1.13,1.54,2.91,2.91,5.32,4.11,2.41,1.21,5.81,2.47,10.2,3.78,6.29,1.83,11.18,3.6,14.69,5.32,3.51,1.72,6.23,3.97,8.17,6.74,1.94,2.78,2.91,6.47,2.91,11.08s-1.19,8.68-3.56,12.23c-2.38,3.55-5.74,6.29-10.09,8.22-4.35,1.94-9.34,2.91-14.97,2.91-17.62,0-27.16-8-28.62-24.01Z"/>
    <path class="cls-1" d="M1719.08,696.42h36.84v11.08h-50.44v-77.53h49.67v11.08h-36.08v21.16h33.55v10.75h-33.55v23.47Z"/>
    <path class="cls-1" d="M1828.02,702.95c.4,1.72,1.04,3.23,1.92,4.55h-14.47c-.88-1.54-1.48-3.36-1.81-5.48-.33-2.12-.57-5.34-.71-9.65-.22-4.09-.97-7.22-2.25-9.38-1.28-2.16-3.16-3.64-5.65-4.44-2.49-.8-5.89-1.21-10.2-1.21h-9.87v30.16h-13.6v-77.53h27.41c8.99,0,15.79,1.74,20.4,5.21,4.61,3.47,6.91,8.65,6.91,15.52,0,11.7-5.23,18.57-15.68,20.62v.66c4.09.66,7.2,1.74,9.32,3.23,2.12,1.5,3.67,3.69,4.66,6.58.99,2.89,1.81,7.04,2.47,12.45.37,4.1.75,7,1.15,8.72ZM1808.56,663.03c2.7-2.45,4.06-5.87,4.06-10.25,0-7.82-5.15-11.73-15.46-11.73h-12.17v25.66h11.29c5.48,0,9.58-1.22,12.28-3.67Z"/>
    <path class="cls-1" d="M1848.58,677.67c-5.12-15.86-10.38-31.76-15.79-47.7h14.58l5.92,19.41c2.34,7.46,4.7,15.15,7.07,23.08,2.37,7.93,4.4,15.15,6.09,21.66h.77c2.63-9.87,7.09-24.82,13.38-44.85.73-2.34,2.74-8.77,6.03-19.3h13.38c-7.68,23.1-16.19,48.94-25.55,77.53h-16.01l-9.87-29.83Z"/>
    <path class="cls-1" d="M1910.98,629.97h13.6v77.53h-13.6v-77.53Z"/>
    <path class="cls-1" d="M1955.55,704.21c-5.23-3.29-9.25-7.99-12.06-14.09-2.81-6.1-4.22-13.21-4.22-21.33s1.41-15.2,4.22-21.27c2.81-6.07,6.87-10.76,12.17-14.09,5.3-3.33,11.49-4.99,18.59-4.99,8.7,0,15.95,2.43,21.77,7.29,5.81,4.86,9.41,11.72,10.8,20.56h-13.49c-1.17-5.34-3.44-9.47-6.8-12.39-3.36-2.92-7.57-4.39-12.61-4.39-6.58,0-11.75,2.6-15.52,7.79-3.77,5.19-5.65,12.35-5.65,21.49s1.88,16.39,5.65,21.55c3.76,5.15,8.94,7.73,15.52,7.73,4.83,0,8.88-1.35,12.17-4.06,3.29-2.7,5.63-6.54,7.02-11.51h13.71c-1.61,8.55-5.26,15.13-10.97,19.74-5.7,4.61-13.01,6.91-21.93,6.91-7.02,0-13.14-1.64-18.37-4.93Z"/>
    <path class="cls-1" d="M2035.11,696.42h36.84v11.08h-50.44v-77.53h49.67v11.08h-36.08v21.16h33.55v10.75h-33.55v23.47Z"/>
    <path class="cls-1" d="M2081.93,685.13h13.38c.44,4.75,1.99,8.13,4.66,10.14,2.67,2.01,6.3,3.02,10.91,3.02s7.93-1.06,10.64-3.18c2.7-2.12,4.06-4.97,4.06-8.55,0-2.85-.68-5.12-2.03-6.8-1.35-1.68-3.27-3.05-5.76-4.11-2.49-1.06-6.21-2.28-11.18-3.67-7.53-2.19-13.4-5.04-17.6-8.55-4.21-3.51-6.31-8.11-6.31-13.82,0-6.58,2.32-11.75,6.96-15.52,4.64-3.76,10.95-5.65,18.92-5.65,8.92,0,15.75,1.75,20.51,5.26,4.75,3.51,7.49,8.88,8.22,16.12h-12.83c-.59-3.58-2.12-6.23-4.61-7.95-2.49-1.72-6.07-2.58-10.75-2.58-4.02,0-7.18.84-9.49,2.52-2.3,1.68-3.45,4.09-3.45,7.24,0,2.27.57,4.17,1.7,5.7,1.13,1.54,2.91,2.91,5.32,4.11s5.81,2.47,10.2,3.78c6.29,1.83,11.18,3.6,14.69,5.32,3.51,1.72,6.23,3.97,8.17,6.74,1.94,2.78,2.91,6.47,2.91,11.08s-1.19,8.68-3.56,12.23c-2.38,3.55-5.74,6.29-10.09,8.22-4.35,1.94-9.34,2.91-14.97,2.91-17.62,0-27.16-8-28.62-24.01Z"/>
  </g>
</svg>